<svg xmlns="http://www.w3.org/2000/svg" xmlns:xlink="http://www.w3.org/1999/xlink" version="1.1" width="1422.62" height="624.62" viewBox="0 0 1422.62 624.62">
<path transform="matrix(1,0,0,-1,109.597,14.371025)" d="M0-595.2891H1298.2637V0H0Z" fill="#ffffff"/>
<path transform="matrix(1,0,0,-1,109.597,14.371025)" stroke-width=".3985" stroke-linecap="butt" stroke-miterlimit="10" stroke-linejoin="miter" fill="none" stroke="#000000" d="M0-595.2891H1298.2637V0H0Z"/>
<path transform="matrix(1,0,0,-1,109.597,14.371025)" stroke-width=".3985" stroke-linecap="butt" stroke-dasharray="2.98883,2.98883" stroke-miterlimit="10" stroke-linejoin="miter" fill="none" stroke="#ff0000" d="M34.01564 0V-595.2892"/>
<path transform="matrix(1,0,0,-1,109.597,14.371025)" stroke-width=".3985" stroke-linecap="butt" stroke-dasharray="2.98883,2.98883" stroke-miterlimit="10" stroke-linejoin="miter" fill="none" stroke="#ff0000" d="M102.04692 0V-595.2892"/>
<path transform="matrix(1,0,0,-1,109.597,14.371025)" stroke-width=".3985" stroke-linecap="butt" stroke-dasharray="2.98883,2.98883" stroke-miterlimit="10" stroke-linejoin="miter" fill="none" stroke="#ff0000" d="M170.0782 0V-595.2892"/>
<path transform="matrix(1,0,0,-1,109.597,14.371025)" stroke-width=".3985" stroke-linecap="butt" stroke-dasharray="2.98883,2.98883" stroke-miterlimit="10" stroke-linejoin="miter" fill="none" stroke="#ff0000" d="M238.1095 0V-595.2892"/>
<path transform="matrix(1,0,0,-1,109.597,14.371025)" stroke-width=".3985" stroke-linecap="butt" stroke-dasharray="2.98883,2.98883" stroke-miterlimit="10" stroke-linejoin="miter" fill="none" stroke="#ff0000" d="M306.14079 0V-595.2892"/>
<path transform="matrix(1,0,0,-1,109.597,14.371025)" stroke-width=".3985" stroke-linecap="butt" stroke-dasharray="2.98883,2.98883" stroke-miterlimit="10" stroke-linejoin="miter" fill="none" stroke="#ff0000" d="M374.17207 0V-595.2892"/>
<path transform="matrix(1,0,0,-1,109.597,14.371025)" stroke-width=".3985" stroke-linecap="butt" stroke-dasharray="2.98883,2.98883" stroke-miterlimit="10" stroke-linejoin="miter" fill="none" stroke="#ff0000" d="M442.20335 0V-595.2892"/>
<path transform="matrix(1,0,0,-1,109.597,14.371025)" stroke-width=".3985" stroke-linecap="butt" stroke-dasharray="2.98883,2.98883" stroke-miterlimit="10" stroke-linejoin="miter" fill="none" stroke="#ff0000" d="M510.23463 0V-595.2892"/>
<path transform="matrix(1,0,0,-1,109.597,14.371025)" stroke-width=".3985" stroke-linecap="butt" stroke-dasharray="2.98883,2.98883" stroke-miterlimit="10" stroke-linejoin="miter" fill="none" stroke="#ff0000" d="M578.2659 0V-595.2892"/>
<path transform="matrix(1,0,0,-1,109.597,14.371025)" stroke-width=".3985" stroke-linecap="butt" stroke-dasharray="2.98883,2.98883" stroke-miterlimit="10" stroke-linejoin="miter" fill="none" stroke="#ff0000" d="M646.2972 0V-595.2892"/>
<path transform="matrix(1,0,0,-1,109.597,14.371025)" stroke-width=".3985" stroke-linecap="butt" stroke-dasharray="2.98883,2.98883" stroke-miterlimit="10" stroke-linejoin="miter" fill="none" stroke="#ff0000" d="M714.3285 0V-595.2892"/>
<path transform="matrix(1,0,0,-1,109.597,14.371025)" stroke-width=".3985" stroke-linecap="butt" stroke-dasharray="2.98883,2.98883" stroke-miterlimit="10" stroke-linejoin="miter" fill="none" stroke="#ff0000" d="M782.35977 0V-595.2892"/>
<path transform="matrix(1,0,0,-1,109.597,14.371025)" stroke-width=".3985" stroke-linecap="butt" stroke-dasharray="2.98883,2.98883" stroke-miterlimit="10" stroke-linejoin="miter" fill="none" stroke="#ff0000" d="M850.39108 0V-595.2892"/>
<path transform="matrix(1,0,0,-1,109.597,14.371025)" stroke-width=".3985" stroke-linecap="butt" stroke-dasharray="2.98883,2.98883" stroke-miterlimit="10" stroke-linejoin="miter" fill="none" stroke="#ff0000" d="M918.42239 0V-595.2892"/>
<path transform="matrix(1,0,0,-1,109.597,14.371025)" stroke-width=".3985" stroke-linecap="butt" stroke-dasharray="2.98883,2.98883" stroke-miterlimit="10" stroke-linejoin="miter" fill="none" stroke="#ff0000" d="M986.4536 0V-595.2892"/>
<path transform="matrix(1,0,0,-1,109.597,14.371025)" stroke-width=".3985" stroke-linecap="butt" stroke-dasharray="2.98883,2.98883" stroke-miterlimit="10" stroke-linejoin="miter" fill="none" stroke="#ff0000" d="M1054.4849 0V-595.2892"/>
<path transform="matrix(1,0,0,-1,109.597,14.371025)" stroke-width=".3985" stroke-linecap="butt" stroke-dasharray="2.98883,2.98883" stroke-miterlimit="10" stroke-linejoin="miter" fill="none" stroke="#ff0000" d="M1122.5162 0V-595.2892"/>
<path transform="matrix(1,0,0,-1,109.597,14.371025)" stroke-width=".3985" stroke-linecap="butt" stroke-dasharray="2.98883,2.98883" stroke-miterlimit="10" stroke-linejoin="miter" fill="none" stroke="#ff0000" d="M1190.5475 0V-595.2892"/>
<path transform="matrix(1,0,0,-1,109.597,14.371025)" stroke-width=".3985" stroke-linecap="butt" stroke-dasharray="2.98883,2.98883" stroke-miterlimit="10" stroke-linejoin="miter" fill="none" stroke="#ff0000" d="M1258.5787 0V-595.2892"/>
<path transform="matrix(1,0,0,-1,109.597,14.371025)" d="M107.7162-16.15778H113.385478V-.85044959H107.7162Z" fill="#ffffff"/>
<path transform="matrix(1,0,0,-1,109.597,14.371025)" d="M109.2003-1.53018H111.90137C108.77023-1.53018 106.23201-4.0684 106.23201-7.19952V-9.8087C106.23201-12.93982 108.77023-15.47806 111.90137-15.47806H109.2003C112.33142-15.47806 114.86966-12.93982 114.86966-9.8087V-7.19952C114.86966-4.0684 112.33142-1.53018 109.2003-1.53018ZM106.23201-15.47806" fill="#73c3f0"/>
<text fill="#ffffff" xml:space="preserve" transform="matrix(1 0 -0 1 179.228 82.89403)" font-size="9.9626" font-family="ArialMT"><tspan y="-57.628" x="37.597">X</tspan></text>
<path transform="matrix(1,0,0,-1,109.597,14.371025)" d="M175.74748-16.15778H181.41675V-.85044959H175.74748Z" fill="#ffffff"/>
<path transform="matrix(1,0,0,-1,109.597,14.371025)" d="M176.95188-1.53018H180.21236C177.08124-1.53018 174.54302-4.0684 174.54302-7.19952V-9.8087C174.54302-12.93982 177.08124-15.47806 180.21236-15.47806H176.95188C180.083-15.47806 182.62122-12.93982 182.62122-9.8087V-7.19952C182.62122-4.0684 180.083-1.53018 176.95188-1.53018ZM174.54302-15.47806" fill="#73c3f0"/>
<text fill="#ffffff" xml:space="preserve" transform="matrix(1 0 -0 1 247.539 82.89403)" font-size="9.9626" font-family="ArialMT"><tspan y="-57.628" x="37.597">Z</tspan></text>
<path transform="matrix(1,0,0,-1,109.597,14.371025)" d="M221.10167-16.15778H226.77094V-.85044959H221.10167Z" fill="#ffffff"/>
<path transform="matrix(1,0,0,-1,109.597,14.371025)" d="M222.58579-1.53018H225.28684C222.15572-1.53018 219.6175-4.0684 219.6175-7.19952V-9.8087C219.6175-12.93982 222.15572-15.47806 225.28684-15.47806H222.58579C225.7169-15.47806 228.25513-12.93982 228.25513-9.8087V-7.19952C228.25513-4.0684 225.7169-1.53018 222.58579-1.53018ZM219.6175-15.47806" fill="#c7e7f9"/>
<text fill="#ffffff" xml:space="preserve" transform="matrix(1 0 -0 1 292.614 82.89403)" font-size="9.9626" font-family="ArialMT"><tspan y="-57.628" x="37.597">Y</tspan></text>
<path transform="matrix(1,0,0,-1,109.597,14.371025)" d="M0-34.0165H5.66927V-17.008259H0Z" fill="#ffffff"/>
<path transform="matrix(1,0,0,-1,109.597,14.371025)" stroke-width=".3985" stroke-linecap="butt" stroke-miterlimit="10" stroke-linejoin="miter" fill="none" stroke="#000000" d="M0-34.0165H5.66927V-17.008259H0Z"/>
<text xml:space="preserve" transform="matrix(1 0 -0 1 64.861 99.703029)" font-size="8.9664" font-family="ArialMT"><tspan y="-57.628" x="37.597 42.58232 47.567644 52.552965">2023</tspan></text>
<path transform="matrix(1,0,0,-1,109.597,14.371025)" d="M5.66927-34.0165H73.700557V-17.008259H5.66927Z" fill="#ffffff"/>
<path transform="matrix(1,0,0,-1,109.597,14.371025)" stroke-width=".3985" stroke-linecap="butt" stroke-miterlimit="10" stroke-linejoin="miter" fill="none" stroke="#000000" d="M5.66927-34.0165H73.700557V-17.008259H5.66927Z"/>
<text xml:space="preserve" transform="matrix(1 0 -0 1 101.711 99.703029)" font-size="8.9664" font-family="ArialMT"><tspan y="-57.628" x="37.597 42.58232 47.567644 52.552965">2024</tspan></text>
<path transform="matrix(1,0,0,-1,109.597,14.371025)" d="M73.70055-34.0165H141.73183V-17.008259H73.70055Z" fill="#ffffff"/>
<path transform="matrix(1,0,0,-1,109.597,14.371025)" stroke-width=".3985" stroke-linecap="butt" stroke-miterlimit="10" stroke-linejoin="miter" fill="none" stroke="#000000" d="M73.70055-34.0165H141.73183V-17.008259H73.70055Z"/>
<text xml:space="preserve" transform="matrix(1 0 -0 1 169.743 99.703029)" font-size="8.9664" font-family="ArialMT"><tspan y="-57.628" x="37.597 42.58232 47.567644 52.552965">2025</tspan></text>
<path transform="matrix(1,0,0,-1,109.597,14.371025)" d="M141.73184-34.0165H209.76313V-17.008259H141.73184Z" fill="#ffffff"/>
<path transform="matrix(1,0,0,-1,109.597,14.371025)" stroke-width=".3985" stroke-linecap="butt" stroke-miterlimit="10" stroke-linejoin="miter" fill="none" stroke="#000000" d="M141.73184-34.0165H209.76313V-17.008259H141.73184Z"/>
<text xml:space="preserve" transform="matrix(1 0 -0 1 237.774 99.703029)" font-size="8.9664" font-family="ArialMT"><tspan y="-57.628" x="37.597 42.58232 47.567644 52.552965">2026</tspan></text>
<path transform="matrix(1,0,0,-1,109.597,14.371025)" d="M209.76313-34.0165H277.7944V-17.008259H209.76313Z" fill="#ffffff"/>
<path transform="matrix(1,0,0,-1,109.597,14.371025)" stroke-width=".3985" stroke-linecap="butt" stroke-miterlimit="10" stroke-linejoin="miter" fill="none" stroke="#000000" d="M209.76313-34.0165H277.7944V-17.008259H209.76313Z"/>
<text xml:space="preserve" transform="matrix(1 0 -0 1 305.805 99.703029)" font-size="8.9664" font-family="ArialMT"><tspan y="-57.628" x="37.597 42.58232 47.567644 52.552965">2027</tspan></text>
<path transform="matrix(1,0,0,-1,109.597,14.371025)" d="M277.7944-34.0165H345.82569V-17.008259H277.7944Z" fill="#ffffff"/>
<path transform="matrix(1,0,0,-1,109.597,14.371025)" stroke-width=".3985" stroke-linecap="butt" stroke-miterlimit="10" stroke-linejoin="miter" fill="none" stroke="#000000" d="M277.7944-34.0165H345.82569V-17.008259H277.7944Z"/>
<text xml:space="preserve" transform="matrix(1 0 -0 1 373.837 99.703029)" font-size="8.9664" font-family="ArialMT"><tspan y="-57.628" x="37.597 42.58232 47.567644 52.552965">2028</tspan></text>
<path transform="matrix(1,0,0,-1,109.597,14.371025)" d="M345.8257-34.0165H413.857V-17.008259H345.8257Z" fill="#ffffff"/>
<path transform="matrix(1,0,0,-1,109.597,14.371025)" stroke-width=".3985" stroke-linecap="butt" stroke-miterlimit="10" stroke-linejoin="miter" fill="none" stroke="#000000" d="M345.8257-34.0165H413.857V-17.008259H345.8257Z"/>
<text xml:space="preserve" transform="matrix(1 0 -0 1 441.868 99.703029)" font-size="8.9664" font-family="ArialMT"><tspan y="-57.628" x="37.597 42.58232 47.567644 52.552965">2029</tspan></text>
<path transform="matrix(1,0,0,-1,109.597,14.371025)" d="M413.857-34.0165H481.88829V-17.008259H413.857Z" fill="#ffffff"/>
<path transform="matrix(1,0,0,-1,109.597,14.371025)" stroke-width=".3985" stroke-linecap="butt" stroke-miterlimit="10" stroke-linejoin="miter" fill="none" stroke="#000000" d="M413.857-34.0165H481.88829V-17.008259H413.857Z"/>
<text xml:space="preserve" transform="matrix(1 0 -0 1 509.899 99.703029)" font-size="8.9664" font-family="ArialMT"><tspan y="-57.628" x="37.597 42.58232 47.567644 52.552965">2030</tspan></text>
<path transform="matrix(1,0,0,-1,109.597,14.371025)" d="M481.88829-34.0165H549.91958V-17.008259H481.88829Z" fill="#ffffff"/>
<path transform="matrix(1,0,0,-1,109.597,14.371025)" stroke-width=".3985" stroke-linecap="butt" stroke-miterlimit="10" stroke-linejoin="miter" fill="none" stroke="#000000" d="M481.88829-34.0165H549.91958V-17.008259H481.88829Z"/>
<text xml:space="preserve" transform="matrix(1 0 -0 1 577.93 99.703029)" font-size="8.9664" font-family="ArialMT"><tspan y="-57.628" x="37.597 42.58232 47.567644 52.552965">2031</tspan></text>
<path transform="matrix(1,0,0,-1,109.597,14.371025)" d="M549.91958-34.0165H617.9508V-17.008259H549.91958Z" fill="#ffffff"/>
<path transform="matrix(1,0,0,-1,109.597,14.371025)" stroke-width=".3985" stroke-linecap="butt" stroke-miterlimit="10" stroke-linejoin="miter" fill="none" stroke="#000000" d="M549.91958-34.0165H617.9508V-17.008259H549.91958Z"/>
<text xml:space="preserve" transform="matrix(1 0 -0 1 645.962 99.703029)" font-size="8.9664" font-family="ArialMT"><tspan y="-57.628" x="37.597 42.58232 47.567644 52.552965">2032</tspan></text>
<path transform="matrix(1,0,0,-1,109.597,14.371025)" d="M617.95089-34.0165H685.9822V-17.008259H617.95089Z" fill="#ffffff"/>
<path transform="matrix(1,0,0,-1,109.597,14.371025)" stroke-width=".3985" stroke-linecap="butt" stroke-miterlimit="10" stroke-linejoin="miter" fill="none" stroke="#000000" d="M617.95089-34.0165H685.9822V-17.008259H617.95089Z"/>
<text xml:space="preserve" transform="matrix(1 0 -0 1 713.993 99.703029)" font-size="8.9664" font-family="ArialMT"><tspan y="-57.628" x="37.597 42.58232 47.567644 52.552965">2033</tspan></text>
<path transform="matrix(1,0,0,-1,109.597,14.371025)" d="M685.9821-34.0165H754.0134V-17.008259H685.9821Z" fill="#ffffff"/>
<path transform="matrix(1,0,0,-1,109.597,14.371025)" stroke-width=".3985" stroke-linecap="butt" stroke-miterlimit="10" stroke-linejoin="miter" fill="none" stroke="#000000" d="M685.9821-34.0165H754.0134V-17.008259H685.9821Z"/>
<text xml:space="preserve" transform="matrix(1 0 -0 1 782.024 99.703029)" font-size="8.9664" font-family="ArialMT"><tspan y="-57.628" x="37.597 42.58232 47.567644 52.552965">2034</tspan></text>
<path transform="matrix(1,0,0,-1,109.597,14.371025)" d="M754.0134-34.0165H822.0447V-17.008259H754.0134Z" fill="#ffffff"/>
<path transform="matrix(1,0,0,-1,109.597,14.371025)" stroke-width=".3985" stroke-linecap="butt" stroke-miterlimit="10" stroke-linejoin="miter" fill="none" stroke="#000000" d="M754.0134-34.0165H822.0447V-17.008259H754.0134Z"/>
<text xml:space="preserve" transform="matrix(1 0 -0 1 850.056 99.703029)" font-size="8.9664" font-family="ArialMT"><tspan y="-57.628" x="37.597 42.58232 47.567644 52.552965">2035</tspan></text>
<path transform="matrix(1,0,0,-1,109.597,14.371025)" d="M822.0447-34.0165H890.0759V-17.008259H822.0447Z" fill="#ffffff"/>
<path transform="matrix(1,0,0,-1,109.597,14.371025)" stroke-width=".3985" stroke-linecap="butt" stroke-miterlimit="10" stroke-linejoin="miter" fill="none" stroke="#000000" d="M822.0447-34.0165H890.0759V-17.008259H822.0447Z"/>
<text xml:space="preserve" transform="matrix(1 0 -0 1 918.087 99.703029)" font-size="8.9664" font-family="ArialMT"><tspan y="-57.628" x="37.597 42.58232 47.567644 52.552965">2036</tspan></text>
<path transform="matrix(1,0,0,-1,109.597,14.371025)" d="M890.076-34.0165H958.1073V-17.008259H890.076Z" fill="#ffffff"/>
<path transform="matrix(1,0,0,-1,109.597,14.371025)" stroke-width=".3985" stroke-linecap="butt" stroke-miterlimit="10" stroke-linejoin="miter" fill="none" stroke="#000000" d="M890.076-34.0165H958.1073V-17.008259H890.076Z"/>
<text xml:space="preserve" transform="matrix(1 0 -0 1 986.118 99.703029)" font-size="8.9664" font-family="ArialMT"><tspan y="-57.628" x="37.597 42.58232 47.567644 52.552965">2037</tspan></text>
<path transform="matrix(1,0,0,-1,109.597,14.371025)" d="M958.1073-34.0165H1026.1386V-17.008259H958.1073Z" fill="#ffffff"/>
<path transform="matrix(1,0,0,-1,109.597,14.371025)" stroke-width=".3985" stroke-linecap="butt" stroke-miterlimit="10" stroke-linejoin="miter" fill="none" stroke="#000000" d="M958.1073-34.0165H1026.1386V-17.008259H958.1073Z"/>
<text xml:space="preserve" transform="matrix(1 0 -0 1 1054.1489 99.703029)" font-size="8.9664" font-family="ArialMT"><tspan y="-57.628" x="37.597 42.58232 47.567644 52.552965">2038</tspan></text>
<path transform="matrix(1,0,0,-1,109.597,14.371025)" d="M1026.1386-34.0165H1094.1698V-17.008259H1026.1386Z" fill="#ffffff"/>
<path transform="matrix(1,0,0,-1,109.597,14.371025)" stroke-width=".3985" stroke-linecap="butt" stroke-miterlimit="10" stroke-linejoin="miter" fill="none" stroke="#000000" d="M1026.1386-34.0165H1094.1698V-17.008259H1026.1386Z"/>
<text xml:space="preserve" transform="matrix(1 0 -0 1 1122.181 99.703029)" font-size="8.9664" font-family="ArialMT"><tspan y="-57.628" x="37.597 42.58232 47.567644 52.552965">2039</tspan></text>
<path transform="matrix(1,0,0,-1,109.597,14.371025)" d="M1094.1698-34.0165H1162.201V-17.008259H1094.1698Z" fill="#ffffff"/>
<path transform="matrix(1,0,0,-1,109.597,14.371025)" stroke-width=".3985" stroke-linecap="butt" stroke-miterlimit="10" stroke-linejoin="miter" fill="none" stroke="#000000" d="M1094.1698-34.0165H1162.201V-17.008259H1094.1698Z"/>
<text xml:space="preserve" transform="matrix(1 0 -0 1 1190.212 99.703029)" font-size="8.9664" font-family="ArialMT"><tspan y="-57.628" x="37.597 42.58232 47.567644 52.552965">2040</tspan></text>
<path transform="matrix(1,0,0,-1,109.597,14.371025)" d="M1162.2012-34.0165H1230.2324V-17.008259H1162.2012Z" fill="#ffffff"/>
<path transform="matrix(1,0,0,-1,109.597,14.371025)" stroke-width=".3985" stroke-linecap="butt" stroke-miterlimit="10" stroke-linejoin="miter" fill="none" stroke="#000000" d="M1162.2012-34.0165H1230.2324V-17.008259H1162.2012Z"/>
<text xml:space="preserve" transform="matrix(1 0 -0 1 1258.243 99.703029)" font-size="8.9664" font-family="ArialMT"><tspan y="-57.628" x="37.597 42.58232 47.567644 52.552965">2041</tspan></text>
<path transform="matrix(1,0,0,-1,109.597,14.371025)" d="M1230.2324-34.0165H1298.2637V-17.008259H1230.2324Z" fill="#ffffff"/>
<path transform="matrix(1,0,0,-1,109.597,14.371025)" stroke-width=".3985" stroke-linecap="butt" stroke-miterlimit="10" stroke-linejoin="miter" fill="none" stroke="#000000" d="M1230.2324-34.0165H1298.2637V-17.008259H1230.2324Z"/>
<text xml:space="preserve" transform="matrix(1 0 -0 1 1326.275 99.703029)" font-size="8.9664" font-family="ArialMT"><tspan y="-57.628" x="37.597 42.58232 47.567644 52.552965">2042</tspan></text>
<path transform="matrix(1,0,0,-1,109.597,14.371025)" d="M-.56696-40.8197H1298.8307V-44.2213L1297.6968-45.92223 1296.563-44.2213H1.7007L.56686-45.92223-.56696-44.2213Z"/>
<text xml:space="preserve" transform="matrix(1 0 -0 1 -20.105004 116.911029)" font-size="9.9626" font-family="Arial" font-weight="bold"><tspan y="-57.628" x="37.597 44.789999 50.877145 56.41635 59.7339 65.821048 74.677799 80.217 86.8521 93.497158 97.372608 103.459758 106.229358 111.76856 117.30777 120.62531">CustomerProjects</tspan></text>
<path transform="matrix(1,0,0,-1,109.597,14.371025)" d="M138.89717-53.57591H2.83466C1.2691-53.57591 0-54.84502 0-56.41058V-62.64696C0-64.21251 1.2691-65.48161 2.83466-65.48161H138.89717C140.46274-65.48161 141.73184-64.21251 141.73184-62.64696V-56.41058C141.73184-54.84502 140.46274-53.57591 138.89717-53.57591ZM0-65.48161" fill="#0078dc"/>
<path transform="matrix(1,0,0,-1,109.597,14.371025)" stroke-width=".3985" stroke-linecap="butt" stroke-miterlimit="10" stroke-linejoin="miter" fill="none" stroke="#000000" d="M138.89717-53.57591H2.83466C1.2691-53.57591 0-54.84502 0-56.41058V-62.64696C0-64.21251 1.2691-65.48161 2.83466-65.48161H138.89717C140.46274-65.48161 141.73184-64.21251 141.73184-62.64696V-56.41058C141.73184-54.84502 140.46274-53.57591 138.89717-53.57591ZM0-65.48161"/>
<text xml:space="preserve" transform="matrix(1 0 -0 1 28.060002 133.91902)" font-size="9.9626" font-family="ArialMT"><tspan y="-57.628" x="37.597 44.242055 47.5596 53.09881 55.310506 60.849714 65.83101 71.36025">ProjectA</tspan></text>
<path transform="matrix(1,0,0,-1,109.597,14.371025)" d="M779.52517-70.58418H19.84248C18.27692-70.58418 17.00781-71.85329 17.00781-73.41884V-79.65521C17.00781-81.22078 18.27692-82.48988 19.84248-82.48988H779.52517C781.0907-82.48988 782.35977-81.22078 782.35977-79.65521V-73.41884C782.35977-71.85329 781.0907-70.58418 779.52517-70.58418ZM17.00781-82.48988" fill="#0078dc"/>
<path transform="matrix(1,0,0,-1,109.597,14.371025)" stroke-width=".3985" stroke-linecap="butt" stroke-miterlimit="10" stroke-linejoin="miter" fill="none" stroke="#000000" d="M779.52517-70.58418H19.84248C18.27692-70.58418 17.00781-71.85329 17.00781-73.41884V-79.65521C17.00781-81.22078 18.27692-82.48988 19.84248-82.48988H779.52517C781.0907-82.48988 782.35977-81.22078 782.35977-79.65521V-73.41884C782.35977-71.85329 781.0907-70.58418 779.52517-70.58418ZM17.00781-82.48988"/>
<text xml:space="preserve" transform="matrix(1 0 -0 1 28.060002 150.92704)" font-size="9.9626" font-family="ArialMT"><tspan y="-57.628" x="37.597 44.242055 47.5596 53.09881 55.310506 60.849714 65.83101 71.36025">ProjectB</tspan></text>
<path transform="matrix(1,0,0,-1,109.597,14.371025)" stroke-width="1.19553" stroke-linecap="butt" stroke-miterlimit="10" stroke-linejoin="miter" fill="none" stroke="#ec008c" d="M0-85.0413H1298.2637"/>
<path transform="matrix(1,0,0,-1,109.597,14.371025)" d="M-.56696-91.8445H1298.8307V-95.2461L1297.6968-96.947 1296.563-95.2461H1.7007L.56686-96.947-.56696-95.2461Z"/>
<text xml:space="preserve" transform="matrix(1 0 -0 1 3.6829987 167.93503)" font-size="9.9626" font-family="Arial" font-weight="bold"><tspan y="-57.628" x="37.597 44.242055 49.78126 55.32047 58.638017 64.17722 75.79362 81.88077 87.419979 92.95918 98.49839">SystemLayer</tspan></text>
<path transform="matrix(1,0,0,-1,109.597,14.371025)" d="M399.68376-104.60071H14.1732C12.60765-104.60071 11.33855-105.86981 11.33855-107.43536V-113.67174C11.33855-115.2373 12.60765-116.50641 14.1732-116.50641H399.68376C401.24934-116.50641 402.51844-115.2373 402.51844-113.67174V-107.43536C402.51844-105.86981 401.24934-104.60071 399.68376-104.60071ZM11.33855-116.50641" fill="#0078dc"/>
<path transform="matrix(1,0,0,-1,109.597,14.371025)" stroke-width=".3985" stroke-linecap="butt" stroke-miterlimit="10" stroke-linejoin="miter" fill="none" stroke="#000000" d="M399.68376-104.60071H14.1732C12.60765-104.60071 11.33855-105.86981 11.33855-107.43536V-113.67174C11.33855-115.2373 12.60765-116.50641 14.1732-116.50641H399.68376C401.24934-116.50641 402.51844-115.2373 402.51844-113.67174V-107.43536C402.51844-105.86981 401.24934-104.60071 399.68376-104.60071ZM11.33855-116.50641"/>
<text xml:space="preserve" transform="matrix(1 0 -0 1 52.417 184.94403)" font-size="9.9626" font-family="ArialMT"><tspan y="-57.628" x="37.597 43.136209 48.675416">abc</tspan></text>
<path transform="matrix(1,0,0,-1,109.597,14.371025)" d="M399.68376-121.60896H14.1732C12.60765-121.60896 11.33855-122.87807 11.33855-124.44363V-130.68C11.33855-132.24556 12.60765-133.51467 14.1732-133.51467H399.68376C401.24934-133.51467 402.51844-132.24556 402.51844-130.68V-124.44363C402.51844-122.87807 401.24934-121.60896 399.68376-121.60896ZM11.33855-133.51467" fill="#0078dc"/>
<path transform="matrix(1,0,0,-1,109.597,14.371025)" stroke-width=".3985" stroke-linecap="butt" stroke-miterlimit="10" stroke-linejoin="miter" fill="none" stroke="#000000" d="M399.68376-121.60896H14.1732C12.60765-121.60896 11.33855-122.87807 11.33855-124.44363V-130.68C11.33855-132.24556 12.60765-133.51467 14.1732-133.51467H399.68376C401.24934-133.51467 402.51844-132.24556 402.51844-130.68V-124.44363C402.51844-122.87807 401.24934-121.60896 399.68376-121.60896ZM11.33855-133.51467"/>
<text xml:space="preserve" transform="matrix(1 0 -0 1 54.631 201.95203)" font-size="9.9626" font-family="ArialMT"><tspan y="-57.628" x="37.597 43.136209 48.675416">def</tspan></text>
<path transform="matrix(1,0,0,-1,109.597,14.371025)" d="M399.68376-138.61722H76.53522C74.96967-138.61722 73.70055-139.88634 73.70055-141.45189V-147.68827C73.70055-149.25382 74.96967-150.52294 76.53522-150.52294H399.68376C401.24934-150.52294 402.51844-149.25382 402.51844-147.68827V-141.45189C402.51844-139.88634 401.24934-138.61722 399.68376-138.61722ZM73.70055-150.52294" fill="#0078dc"/>
<path transform="matrix(1,0,0,-1,109.597,14.371025)" stroke-width=".3985" stroke-linecap="butt" stroke-miterlimit="10" stroke-linejoin="miter" fill="none" stroke="#000000" d="M399.68376-138.61722H76.53522C74.96967-138.61722 73.70055-139.88634 73.70055-141.45189V-147.68827C73.70055-149.25382 74.96967-150.52294 76.53522-150.52294H399.68376C401.24934-150.52294 402.51844-149.25382 402.51844-147.68827V-141.45189C402.51844-139.88634 401.24934-138.61722 399.68376-138.61722ZM73.70055-150.52294"/>
<text xml:space="preserve" transform="matrix(1 0 -0 1 20.300999 218.96002)" font-size="9.9626" font-family="ArialMT"><tspan y="-57.628" x="37.597 44.242055 49.78126 55.32047 63.619318 69.15852 72.47607 74.68777 80.226978">Submarine</tspan></text>
<path transform="matrix(1,0,0,-1,109.597,14.371025)" d="M399.68376-155.62549H14.1732C12.60765-155.62549 11.33855-156.89459 11.33855-158.46016V-164.69652C11.33855-166.26209 12.60765-167.53119 14.1732-167.53119H399.68376C401.24934-167.53119 402.51844-166.26209 402.51844-164.69652V-158.46016C402.51844-156.89459 401.24934-155.62549 399.68376-155.62549ZM11.33855-167.53119" fill="#0078dc"/>
<path transform="matrix(1,0,0,-1,109.597,14.371025)" stroke-width=".3985" stroke-linecap="butt" stroke-miterlimit="10" stroke-linejoin="miter" fill="none" stroke="#000000" d="M399.68376-155.62549H14.1732C12.60765-155.62549 11.33855-156.89459 11.33855-158.46016V-164.69652C11.33855-166.26209 12.60765-167.53119 14.1732-167.53119H399.68376C401.24934-167.53119 402.51844-166.26209 402.51844-164.69652V-158.46016C402.51844-156.89459 401.24934-155.62549 399.68376-155.62549ZM11.33855-167.53119"/>
<text xml:space="preserve" transform="matrix(1 0 -0 1 55.184999 235.96802)" font-size="9.9626" font-family="ArialMT"><tspan y="-57.628" x="37.597 43.136209 48.675416">ghi</tspan></text>
<path transform="matrix(1,0,0,-1,109.597,14.371025)" d="M399.68376-172.63375H14.1732C12.60765-172.63375 11.33855-173.90287 11.33855-175.46842V-181.70479C11.33855-183.27034 12.60765-184.53946 14.1732-184.53946H399.68376C401.24934-184.53946 402.51844-183.27034 402.51844-181.70479V-175.46842C402.51844-173.90287 401.24934-172.63375 399.68376-172.63375ZM11.33855-184.53946" fill="#0078dc"/>
<path transform="matrix(1,0,0,-1,109.597,14.371025)" stroke-width=".3985" stroke-linecap="butt" stroke-miterlimit="10" stroke-linejoin="miter" fill="none" stroke="#000000" d="M399.68376-172.63375H14.1732C12.60765-172.63375 11.33855-173.90287 11.33855-175.46842V-181.70479C11.33855-183.27034 12.60765-184.53946 14.1732-184.53946H399.68376C401.24934-184.53946 402.51844-183.27034 402.51844-181.70479V-175.46842C402.51844-173.90287 401.24934-172.63375 399.68376-172.63375ZM11.33855-184.53946"/>
<text xml:space="preserve" transform="matrix(1 0 -0 1 59.072 252.97702)" font-size="9.9626" font-family="ArialMT"><tspan y="-57.628" x="37.597 39.808698 44.789999">jkl</tspan></text>
<path transform="matrix(1,0,0,-1,109.597,14.371025)" d="M399.68376-189.64202H14.1732C12.60765-189.64202 11.33855-190.91112 11.33855-192.47669V-198.71305C11.33855-200.27861 12.60765-201.54772 14.1732-201.54772H399.68376C401.24934-201.54772 402.51844-200.27861 402.51844-198.71305V-192.47669C402.51844-190.91112 401.24934-189.64202 399.68376-189.64202ZM11.33855-201.54772" fill="#0078dc"/>
<path transform="matrix(1,0,0,-1,109.597,14.371025)" stroke-width=".3985" stroke-linecap="butt" stroke-miterlimit="10" stroke-linejoin="miter" fill="none" stroke="#000000" d="M399.68376-189.64202H14.1732C12.60765-189.64202 11.33855-190.91112 11.33855-192.47669V-198.71305C11.33855-200.27861 12.60765-201.54772 14.1732-201.54772H399.68376C401.24934-201.54772 402.51844-200.27861 402.51844-198.71305V-192.47669C402.51844-190.91112 401.24934-189.64202 399.68376-189.64202ZM11.33855-201.54772"/>
<text xml:space="preserve" transform="matrix(1 0 -0 1 49.099 269.98503)" font-size="9.9626" font-family="ArialMT"><tspan y="-57.628" x="37.597 45.895849 51.435056">mno</tspan></text>
<path transform="matrix(1,0,0,-1,109.597,14.371025)" stroke-width="1.19553" stroke-linecap="butt" stroke-miterlimit="10" stroke-linejoin="miter" fill="none" stroke="#fff200" d="M0-204.09914H1298.2637"/>
<path transform="matrix(1,0,0,-1,109.597,14.371025)" d="M-.56696-210.90233H1298.8307V-214.30393L1297.6968-216.00484 1296.563-214.30393H1.7007L.56686-216.00484-.56696-214.30393Z"/>
<text xml:space="preserve" transform="matrix(1 0 -0 1 -9.568001 286.99305)" font-size="9.9626" font-family="Arial" font-weight="bold"><tspan y="-57.628" x="37.597 44.789999 50.877145 53.646749 56.41635 62.5035 65.2731 71.36025 80.20705 87.40005 90.16965 96.2568 101.796009 110.10481">BuildingBlock1</tspan></text>
<path transform="matrix(1,0,0,-1,109.597,14.371025)" d="M1125.3508-223.65854H8.50394C6.93837-223.65854 5.66927-224.92765 5.66927-226.49321V-232.72957C5.66927-234.29514 6.93837-235.56424 8.50394-235.56424H1125.3508C1126.9164-235.56424 1128.1856-234.29514 1128.1856-232.72957V-226.49321C1128.1856-224.92765 1126.9164-223.65854 1125.3508-223.65854ZM5.66927-235.56424" fill="#0078dc"/>
<path transform="matrix(1,0,0,-1,109.597,14.371025)" stroke-width=".3985" stroke-linecap="butt" stroke-miterlimit="10" stroke-linejoin="miter" fill="none" stroke="#000000" d="M1125.3508-223.65854H8.50394C6.93837-223.65854 5.66927-224.92765 5.66927-226.49321V-232.72957C5.66927-234.29514 6.93837-235.56424 8.50394-235.56424H1125.3508C1126.9164-235.56424 1128.1856-234.29514 1128.1856-232.72957V-226.49321C1128.1856-224.92765 1126.9164-223.65854 1125.3508-223.65854ZM5.66927-235.56424"/>
<text xml:space="preserve" transform="matrix(1 0 -0 1 54.081 304.00105)" font-size="9.9626" font-family="ArialMT"><tspan y="-57.628" x="37.597 43.136209 48.675416">pqr</tspan></text>
<path transform="matrix(1,0,0,-1,109.597,14.371025)" d="M172.91281-240.6668H8.50394C6.93837-240.6668 5.66927-241.93592 5.66927-243.50147V-249.73784C5.66927-251.30339 6.93837-252.57251 8.50394-252.57251H172.91281C174.47838-252.57251 175.74748-251.30339 175.74748-249.73784V-243.50147C175.74748-241.93592 174.47838-240.6668 172.91281-240.6668ZM5.66927-252.57251" fill="#0078dc"/>
<path transform="matrix(1,0,0,-1,109.597,14.371025)" stroke-width=".3985" stroke-linecap="butt" stroke-miterlimit="10" stroke-linejoin="miter" fill="none" stroke="#000000" d="M172.91281-240.6668H8.50394C6.93837-240.6668 5.66927-241.93592 5.66927-243.50147V-249.73784C5.66927-251.30339 6.93837-252.57251 8.50394-252.57251H172.91281C174.47838-252.57251 175.74748-251.30339 175.74748-249.73784V-243.50147C175.74748-241.93592 174.47838-240.6668 172.91281-240.6668ZM5.66927-252.57251"/>
<text xml:space="preserve" transform="matrix(1 0 -0 1 55.190004 321.01)" font-size="9.9626" font-family="ArialMT"><tspan y="-57.628" x="37.597 42.5783 45.347906">stu</tspan></text>
<path transform="matrix(1,0,0,-1,109.597,14.371025)" d="M1125.3508-257.67506H280.62907C279.0635-257.67506 277.7944-258.94419 277.7944-260.50975V-266.7461C277.7944-268.31166 279.0635-269.58076 280.62907-269.58076H1125.3508C1126.9164-269.58076 1128.1856-268.31166 1128.1856-266.7461V-260.50975C1128.1856-258.94419 1126.9164-257.67506 1125.3508-257.67506ZM277.7944-269.58076" fill="#ffb400"/>
<path transform="matrix(1,0,0,-1,109.597,14.371025)" stroke-width=".3985" stroke-linecap="butt" stroke-miterlimit="10" stroke-linejoin="miter" fill="none" stroke="#000000" d="M1125.3508-257.67506H280.62907C279.0635-257.67506 277.7944-258.94419 277.7944-260.50975V-266.7461C277.7944-268.31166 279.0635-269.58076 280.62907-269.58076H1125.3508C1126.9164-269.58076 1128.1856-268.31166 1128.1856-266.7461V-260.50975C1128.1856-258.94419 1126.9164-257.67506 1125.3508-257.67506ZM277.7944-269.58076"/>
<text xml:space="preserve" transform="matrix(1 0 -0 1 51.322999 338.01805)" font-size="9.9626" font-family="ArialMT"><tspan y="-57.628" x="37.597 42.5783 49.771299">vwx</tspan></text>
<path transform="matrix(1,0,0,-1,109.597,14.371025)" stroke-width="1.19553" stroke-linecap="butt" stroke-miterlimit="10" stroke-linejoin="miter" fill="none" stroke="#0000ff" d="M0-272.1322H1298.2637"/>
<path transform="matrix(1,0,0,-1,109.597,14.371025)" d="M-.56696-278.9354H1298.8307V-282.33699L1297.6968-284.0379 1296.563-282.33699H1.7007L.56686-284.0379-.56696-282.33699Z"/>
<text xml:space="preserve" transform="matrix(1 0 -0 1 -9.568001 355.02604)" font-size="9.9626" font-family="Arial" font-weight="bold"><tspan y="-57.628" x="37.597 44.789999 50.877145 53.646749 56.41635 62.5035 65.2731 71.36025 80.20705 87.40005 90.16965 96.2568 101.796009 110.10481">BuildingBlock2</tspan></text>
<path transform="matrix(1,0,0,-1,109.597,14.371025)" d="M1125.3508-291.6916H8.50394C6.93837-291.6916 5.66927-292.9607 5.66927-294.52626V-300.76264C5.66927-302.3282 6.93837-303.5973 8.50394-303.5973H1125.3508C1126.9164-303.5973 1128.1856-302.3282 1128.1856-300.76264V-294.52626C1128.1856-292.9607 1126.9164-291.6916 1125.3508-291.6916ZM5.66927-303.5973" fill="#0078dc"/>
<path transform="matrix(1,0,0,-1,109.597,14.371025)" stroke-width=".3985" stroke-linecap="butt" stroke-miterlimit="10" stroke-linejoin="miter" fill="none" stroke="#000000" d="M1125.3508-291.6916H8.50394C6.93837-291.6916 5.66927-292.9607 5.66927-294.52626V-300.76264C5.66927-302.3282 6.93837-303.5973 8.50394-303.5973H1125.3508C1126.9164-303.5973 1128.1856-302.3282 1128.1856-300.76264V-294.52626C1128.1856-292.9607 1126.9164-291.6916 1125.3508-291.6916ZM5.66927-303.5973"/>
<text xml:space="preserve" transform="matrix(1 0 -0 1 66.267 372.03404)" font-size="9.9626" font-family="ArialMT"><tspan y="-57.628" x="37.597">j</tspan></text>
<path transform="matrix(1,0,0,-1,109.597,14.371025)" d="M1125.3508-308.69984H8.50394C6.93837-308.69984 5.66927-309.96897 5.66927-311.53453V-317.7709C5.66927-319.33644 6.93837-320.60557 8.50394-320.60557H1125.3508C1126.9164-320.60557 1128.1856-319.33644 1128.1856-317.7709V-311.53453C1128.1856-309.96897 1126.9164-308.69984 1125.3508-308.69984ZM5.66927-320.60557" fill="#0078dc"/>
<path transform="matrix(1,0,0,-1,109.597,14.371025)" stroke-width=".3985" stroke-linecap="butt" stroke-miterlimit="10" stroke-linejoin="miter" fill="none" stroke="#000000" d="M1125.3508-308.69984H8.50394C6.93837-308.69984 5.66927-309.96897 5.66927-311.53453V-317.7709C5.66927-319.33644 6.93837-320.60557 8.50394-320.60557H1125.3508C1126.9164-320.60557 1128.1856-319.33644 1128.1856-317.7709V-311.53453C1128.1856-309.96897 1126.9164-308.69984 1125.3508-308.69984ZM5.66927-320.60557"/>
<text xml:space="preserve" transform="matrix(1 0 -0 1 52.976999 389.04304)" font-size="9.9626" font-family="ArialMT"><tspan y="-57.628" x="37.597 42.5783 47.5596">yza</tspan></text>
<path transform="matrix(1,0,0,-1,109.597,14.371025)" d="M1125.3508-325.7081H8.50394C6.93837-325.7081 5.66927-326.97724 5.66927-328.54277V-334.77915C5.66927-336.3447 6.93837-337.61384 8.50394-337.61384H1125.3508C1126.9164-337.61384 1128.1856-336.3447 1128.1856-334.77915V-328.54277C1128.1856-326.97724 1126.9164-325.7081 1125.3508-325.7081ZM5.66927-337.61384" fill="#ffb400"/>
<path transform="matrix(1,0,0,-1,109.597,14.371025)" stroke-width=".3985" stroke-linecap="butt" stroke-miterlimit="10" stroke-linejoin="miter" fill="none" stroke="#000000" d="M1125.3508-325.7081H8.50394C6.93837-325.7081 5.66927-326.97724 5.66927-328.54277V-334.77915C5.66927-336.3447 6.93837-337.61384 8.50394-337.61384H1125.3508C1126.9164-337.61384 1128.1856-336.3447 1128.1856-334.77915V-328.54277C1128.1856-326.97724 1126.9164-325.7081 1125.3508-325.7081ZM5.66927-337.61384"/>
<text xml:space="preserve" transform="matrix(1 0 -0 1 52.417 406.05104)" font-size="9.9626" font-family="ArialMT"><tspan y="-57.628" x="37.597 43.136209 48.117509">bcd</tspan></text>
<path transform="matrix(1,0,0,-1,109.597,14.371025)" stroke-width="1.19553" stroke-linecap="butt" stroke-miterlimit="10" stroke-linejoin="miter" fill="none" stroke="#0000ff" d="M0-340.16526H1298.2637"/>
<path transform="matrix(1,0,0,-1,109.597,14.371025)" d="M-.56696-346.96846H1298.8307V-350.37004L1297.6968-352.07096 1296.563-350.37004H1.7007L.56686-352.07096-.56696-350.37004Z"/>
<text xml:space="preserve" transform="matrix(1 0 -0 1 -9.568001 423.05903)" font-size="9.9626" font-family="Arial" font-weight="bold"><tspan y="-57.628" x="37.597 44.789999 50.877145 53.646749 56.41635 62.5035 65.2731 71.36025 80.20705 87.40005 90.16965 96.2568 101.796009 110.10481">BuildingBlock3</tspan></text>
<path transform="matrix(1,0,0,-1,109.597,14.371025)" d="M411.0223-359.72465H8.50394C6.93837-359.72465 5.66927-360.99375 5.66927-362.5593V-368.7957C5.66927-370.36125 6.93837-371.63035 8.50394-371.63035H411.0223C412.5879-371.63035 413.857-370.36125 413.857-368.7957V-362.5593C413.857-360.99375 412.5879-359.72465 411.0223-359.72465ZM5.66927-371.63035" fill="#0078dc"/>
<path transform="matrix(1,0,0,-1,109.597,14.371025)" stroke-width=".3985" stroke-linecap="butt" stroke-miterlimit="10" stroke-linejoin="miter" fill="none" stroke="#000000" d="M411.0223-359.72465H8.50394C6.93837-359.72465 5.66927-360.99375 5.66927-362.5593V-368.7957C5.66927-370.36125 6.93837-371.63035 8.50394-371.63035H411.0223C412.5879-371.63035 413.857-370.36125 413.857-368.7957V-362.5593C413.857-360.99375 412.5879-359.72465 411.0223-359.72465ZM5.66927-371.63035"/>
<text xml:space="preserve" transform="matrix(1 0 -0 1 54.631 440.06803)" font-size="9.9626" font-family="ArialMT"><tspan y="-57.628" x="37.597 43.136209 45.90581">efg</tspan></text>
<path transform="matrix(1,0,0,-1,109.597,14.371025)" d="M887.24136-359.72465H416.69166C415.12608-359.72465 413.857-360.99375 413.857-362.5593V-368.7957C413.857-370.36125 415.12608-371.63035 416.69166-371.63035H887.24136C888.8069-371.63035 890.076-370.36125 890.076-368.7957V-362.5593C890.076-360.99375 888.8069-359.72465 887.24136-359.72465ZM413.857-371.63035" fill="#99c9f1"/>
<path transform="matrix(1,0,0,-1,109.597,14.371025)" stroke-width=".3985" stroke-linecap="butt" stroke-miterlimit="10" stroke-linejoin="miter" fill="none" stroke="#000000" d="M887.24136-359.72465H416.69166C415.12608-359.72465 413.857-360.99375 413.857-362.5593V-368.7957C413.857-370.36125 415.12608-371.63035 416.69166-371.63035H887.24136C888.8069-371.63035 890.076-370.36125 890.076-368.7957V-362.5593C890.076-360.99375 888.8069-359.72465 887.24136-359.72465ZM413.857-371.63035"/>
<text xml:space="preserve" transform="matrix(1 0 -0 1 717.545 439.56904)" font-size="7.9701" font-family="ArialMT"><tspan y="-57.628" x="37.597 39.366365 46.00546">lmn</tspan></text>
<path transform="matrix(1,0,0,-1,109.597,14.371025)" d="M1227.3977-359.72465H892.91067C891.3451-359.72465 890.076-360.99375 890.076-362.5593V-368.7957C890.076-370.36125 891.3451-371.63035 892.91067-371.63035H1227.3977C1228.9633-371.63035 1230.2324-370.36125 1230.2324-368.7957V-362.5593C1230.2324-360.99375 1228.9633-359.72465 1227.3977-359.72465ZM890.076-371.63035" fill="#99c9f1"/>
<path transform="matrix(1,0,0,-1,109.597,14.371025)" stroke-width=".3985" stroke-linecap="butt" stroke-miterlimit="10" stroke-linejoin="miter" fill="none" stroke="#000000" d="M1227.3977-359.72465H892.91067C891.3451-359.72465 890.076-360.99375 890.076-362.5593V-368.7957C890.076-370.36125 891.3451-371.63035 892.91067-371.63035H1227.3977C1228.9633-371.63035 1230.2324-370.36125 1230.2324-368.7957V-362.5593C1230.2324-360.99375 1228.9633-359.72465 1227.3977-359.72465ZM890.076-371.63035"/>
<text xml:space="preserve" transform="matrix(1 0 -0 1 1125.505 439.56904)" font-size="7.9701" font-family="ArialMT"><tspan y="-57.628" x="37.597 42.028379 46.459756">opq</tspan></text>
<path transform="matrix(1,0,0,-1,109.597,14.371025)" d="M155.905-376.7329H-25.51169C-27.07726-376.7329-28.34636-378.002-28.34636-379.56758V-385.80397C-28.34636-387.36949-27.07726-388.6386-25.51169-388.6386H155.905C157.47055-388.6386 158.73966-387.36949 158.73966-385.80397V-379.56758C158.73966-378.002 157.47055-376.7329 155.905-376.7329ZM-28.34636-388.6386" fill="#99c9f1"/>
<path transform="matrix(1,0,0,-1,109.597,14.371025)" stroke-width=".3985" stroke-linecap="butt" stroke-miterlimit="10" stroke-linejoin="miter" fill="none" stroke="#000000" d="M155.905-376.7329H-25.51169C-27.07726-376.7329-28.34636-378.002-28.34636-379.56758V-385.80397C-28.34636-387.36949-27.07726-388.6386-25.51169-388.6386H155.905C157.47055-388.6386 158.73966-387.36949 158.73966-385.80397V-379.56758C158.73966-378.002 157.47055-376.7329 155.905-376.7329ZM-28.34636-388.6386"/>
<text xml:space="preserve" transform="matrix(1 0 -0 1 132.77 456.57804)" font-size="7.9701" font-family="ArialMT"><tspan y="-57.628" x="37.597 40.251047 44.236097">rst</tspan></text>
<path transform="matrix(1,0,0,-1,109.597,14.371025)" d="M138.89717-393.74119H-65.19661C-66.76218-393.74119-68.03128-395.01029-68.03128-396.5758V-402.8122C-68.03128-404.37776-66.76218-405.64689-65.19661-405.64689H138.89717C140.46274-405.64689 141.73184-404.37776 141.73184-402.8122V-396.5758C141.73184-395.01029 140.46274-393.74119 138.89717-393.74119ZM-68.03128-405.64689" fill="#99c9f1"/>
<path transform="matrix(1,0,0,-1,109.597,14.371025)" stroke-width=".3985" stroke-linecap="butt" stroke-miterlimit="10" stroke-linejoin="miter" fill="none" stroke="#000000" d="M138.89717-393.74119H-65.19661C-66.76218-393.74119-68.03128-395.01029-68.03128-396.5758V-402.8122C-68.03128-404.37776-66.76218-405.64689-65.19661-405.64689H138.89717C140.46274-405.64689 141.73184-404.37776 141.73184-402.8122V-396.5758C141.73184-395.01029 140.46274-393.74119 138.89717-393.74119ZM-68.03128-405.64689"/>
<text xml:space="preserve" transform="matrix(1 0 -0 1 101.763 473.58604)" font-size="7.9701" font-family="ArialMT"><tspan y="-57.628" x="37.597 42.028379 46.013429">uvw</tspan></text>
<path transform="matrix(1,0,0,-1,109.597,14.371025)" d="M206.92845-393.74119H144.5665C143.00095-393.74119 141.73184-395.01029 141.73184-396.5758V-402.8122C141.73184-404.37776 143.00095-405.64689 144.5665-405.64689H206.92845C208.49402-405.64689 209.76313-404.37776 209.76313-402.8122V-396.5758C209.76313-395.01029 208.49402-393.74119 206.92845-393.74119ZM141.73184-405.64689" fill="#99c9f1"/>
<path transform="matrix(1,0,0,-1,109.597,14.371025)" stroke-width=".3985" stroke-linecap="butt" stroke-miterlimit="10" stroke-linejoin="miter" fill="none" stroke="#000000" d="M206.92845-393.74119H144.5665C143.00095-393.74119 141.73184-395.01029 141.73184-396.5758V-402.8122C141.73184-404.37776 143.00095-405.64689 144.5665-405.64689H206.92845C208.49402-405.64689 209.76313-404.37776 209.76313-402.8122V-396.5758C209.76313-395.01029 208.49402-393.74119 206.92845-393.74119ZM141.73184-405.64689"/>
<text xml:space="preserve" transform="matrix(1 0 -0 1 241.77 473.58604)" font-size="7.9701" font-family="ArialMT"><tspan y="-57.628" x="37.597 41.58205 45.5671">xyz</tspan></text>
<path transform="matrix(1,0,0,-1,109.597,14.371025)" d="M161.57427-410.74943H36.8503C35.28474-410.74943 34.01564-412.01853 34.01564-413.58409V-419.82048C34.01564-421.38603 35.28474-422.65513 36.8503-422.65513H161.57427C163.13983-422.65513 164.40894-421.38603 164.40894-419.82048V-413.58409C164.40894-412.01853 163.13983-410.74943 161.57427-410.74943ZM34.01564-422.65513" fill="#99c9f1"/>
<path transform="matrix(1,0,0,-1,109.597,14.371025)" stroke-width=".3985" stroke-linecap="butt" stroke-miterlimit="10" stroke-linejoin="miter" fill="none" stroke="#000000" d="M161.57427-410.74943H36.8503C35.28474-410.74943 34.01564-412.01853 34.01564-413.58409V-419.82048C34.01564-421.38603 35.28474-422.65513 36.8503-422.65513H161.57427C163.13983-422.65513 164.40894-421.38603 164.40894-419.82048V-413.58409C164.40894-412.01853 163.13983-410.74943 161.57427-410.74943ZM34.01564-422.65513"/>
<text xml:space="preserve" transform="matrix(1 0 -0 1 162.347 490.59403)" font-size="7.9701" font-family="ArialMT"><tspan y="-57.628" x="37.597 42.028379 46.459756 50.891134">aaaa</tspan></text>
<path transform="matrix(1,0,0,-1,109.597,14.371025)" d="M342.99104-410.74943H167.2436C165.67804-410.74943 164.40894-412.01853 164.40894-413.58409V-419.82048C164.40894-421.38603 165.67804-422.65513 167.2436-422.65513H342.99104C344.5566-422.65513 345.8257-421.38603 345.8257-419.82048V-413.58409C345.8257-412.01853 344.5566-410.74943 342.99104-410.74943ZM164.40894-422.65513" fill="#99c9f1"/>
<path transform="matrix(1,0,0,-1,109.597,14.371025)" stroke-width=".3985" stroke-linecap="butt" stroke-miterlimit="10" stroke-linejoin="miter" fill="none" stroke="#000000" d="M342.99104-410.74943H167.2436C165.67804-410.74943 164.40894-412.01853 164.40894-413.58409V-419.82048C164.40894-421.38603 165.67804-422.65513 167.2436-422.65513H342.99104C344.5566-422.65513 345.8257-421.38603 345.8257-419.82048V-413.58409C345.8257-412.01853 344.5566-410.74943 342.99104-410.74943ZM164.40894-422.65513"/>
<text xml:space="preserve" transform="matrix(1 0 -0 1 318.252 490.59403)" font-size="7.9701" font-family="ArialMT"><tspan y="-57.628" x="37.597 42.028379 46.459756 50.891134">bbbb</tspan></text>
<path transform="matrix(1,0,0,-1,109.597,14.371025)" d="M1771.6481-410.74943H348.66035C347.0948-410.74943 345.8257-412.01853 345.8257-413.58409V-419.82048C345.8257-421.38603 347.0948-422.65513 348.66035-422.65513H1771.6481C1773.2136-422.65513 1774.4827-421.38603 1774.4827-419.82048V-413.58409C1774.4827-412.01853 1773.2136-410.74943 1771.6481-410.74943ZM345.8257-422.65513" fill="#0078dc"/>
<path transform="matrix(1,0,0,-1,109.597,14.371025)" stroke-width=".3985" stroke-linecap="butt" stroke-miterlimit="10" stroke-linejoin="miter" fill="none" stroke="#000000" d="M1771.6481-410.74943H348.66035C347.0948-410.74943 345.8257-412.01853 345.8257-413.58409V-419.82048C345.8257-421.38603 347.0948-422.65513 348.66035-422.65513H1771.6481C1773.2136-422.65513 1774.4827-421.38603 1774.4827-419.82048V-413.58409C1774.4827-412.01853 1773.2136-410.74943 1771.6481-410.74943ZM345.8257-422.65513"/>
<text xml:space="preserve" transform="matrix(1 0 -0 1 58.513 491.092)" font-size="9.9626" font-family="ArialMT"><tspan y="-57.628" x="37.597 43.136209 45.347906">hij</tspan></text>
<path transform="matrix(1,0,0,-1,109.597,14.371025)" stroke-width="1.19553" stroke-linecap="butt" stroke-miterlimit="10" stroke-linejoin="miter" fill="none" stroke="#ec008c" d="M0-425.20655H1298.2637"/>
<path transform="matrix(1,0,0,-1,109.597,14.371025)" d="M-.56696-432.00975H1298.8307V-435.41133L1297.6968-437.11228 1296.563-435.41133H1.7007L.56686-437.11228-.56696-435.41133Z"/>
<text xml:space="preserve" transform="matrix(1 0 -0 1 -9.568001 508.101)" font-size="9.9626" font-family="Arial" font-weight="bold"><tspan y="-57.628" x="37.597 44.789999 50.877145 53.646749 56.41635 62.5035 65.2731 71.36025 80.20705 87.40005 90.16965 96.2568 101.796009 110.10481">BuildingBlock4</tspan></text>
<path transform="matrix(1,0,0,-1,109.597,14.371025)" d="M683.14749-444.76597H8.50394C6.93837-444.76597 5.66927-446.03507 5.66927-447.60063V-453.83699C5.66927-455.40254 6.93837-456.67167 8.50394-456.67167H683.14749C684.713-456.67167 685.9821-455.40254 685.9821-453.83699V-447.60063C685.9821-446.03507 684.713-444.76597 683.14749-444.76597ZM5.66927-456.67167" fill="#0078dc"/>
<path transform="matrix(1,0,0,-1,109.597,14.371025)" stroke-width=".3985" stroke-linecap="butt" stroke-miterlimit="10" stroke-linejoin="miter" fill="none" stroke="#000000" d="M683.14749-444.76597H8.50394C6.93837-444.76597 5.66927-446.03507 5.66927-447.60063V-453.83699C5.66927-455.40254 6.93837-456.67167 8.50394-456.67167H683.14749C684.713-456.67167 685.9821-455.40254 685.9821-453.83699V-447.60063C685.9821-446.03507 684.713-444.76597 683.14749-444.76597ZM5.66927-456.67167"/>
<text xml:space="preserve" transform="matrix(1 0 -0 1 52.986 525.109)" font-size="9.9626" font-family="ArialMT"><tspan y="-57.628" x="37.597 42.5783 44.789999">klm</tspan></text>
<path transform="matrix(1,0,0,-1,109.597,14.371025)" d="M1431.4916-444.76597H688.8168C687.2512-444.76597 685.9821-446.03507 685.9821-447.60063V-453.83699C685.9821-455.40254 687.2512-456.67167 688.8168-456.67167H1431.4916C1433.0571-456.67167 1434.3263-455.40254 1434.3263-453.83699V-447.60063C1434.3263-446.03507 1433.0571-444.76597 1431.4916-444.76597ZM685.9821-456.67167" fill="#99c9f1"/>
<path transform="matrix(1,0,0,-1,109.597,14.371025)" stroke-width=".3985" stroke-linecap="butt" stroke-miterlimit="10" stroke-linejoin="miter" fill="none" stroke="#000000" d="M1431.4916-444.76597H688.8168C687.2512-444.76597 685.9821-446.03507 685.9821-447.60063V-453.83699C685.9821-455.40254 687.2512-456.67167 688.8168-456.67167H1431.4916C1433.0571-456.67167 1434.3263-455.40254 1434.3263-453.83699V-447.60063C1434.3263-446.03507 1433.0571-444.76597 1431.4916-444.76597ZM685.9821-456.67167"/>
<text xml:space="preserve" transform="matrix(1 0 -0 1 1124.184 524.611)" font-size="7.9701" font-family="ArialMT"><tspan y="-57.628" x="37.597 41.58205 45.5671 49.55215">cccc</tspan></text>
<path transform="matrix(1,0,0,-1,109.597,14.371025)" d="M342.99104-461.77424H76.53522C74.96967-461.77424 73.70055-463.04335 73.70055-464.60887V-470.84526C73.70055-472.4108 74.96967-473.67994 76.53522-473.67994H342.99104C344.5566-473.67994 345.8257-472.4108 345.8257-470.84526V-464.60887C345.8257-463.04335 344.5566-461.77424 342.99104-461.77424ZM73.70055-473.67994" fill="#99c9f1"/>
<path transform="matrix(1,0,0,-1,109.597,14.371025)" stroke-width=".3985" stroke-linecap="butt" stroke-miterlimit="10" stroke-linejoin="miter" fill="none" stroke="#000000" d="M342.99104-461.77424H76.53522C74.96967-461.77424 73.70055-463.04335 73.70055-464.60887V-470.84526C73.70055-472.4108 74.96967-473.67994 76.53522-473.67994H342.99104C344.5566-473.67994 345.8257-472.4108 345.8257-470.84526V-464.60887C345.8257-463.04335 344.5566-461.77424 342.99104-461.77424ZM73.70055-473.67994"/>
<text xml:space="preserve" transform="matrix(1 0 -0 1 272.898 541.619)" font-size="7.9701" font-family="ArialMT"><tspan y="-57.628" x="37.597 42.028379 46.459756 50.891134">dddd</tspan></text>
<path transform="matrix(1,0,0,-1,109.597,14.371025)" d="M547.0849-461.77424H348.66035C347.0948-461.77424 345.8257-463.04335 345.8257-464.60887V-470.84526C345.8257-472.4108 347.0948-473.67994 348.66035-473.67994H547.0849C548.65048-473.67994 549.91958-472.4108 549.91958-470.84526V-464.60887C549.91958-463.04335 548.65048-461.77424 547.0849-461.77424ZM345.8257-473.67994" fill="#99c9f1"/>
<path transform="matrix(1,0,0,-1,109.597,14.371025)" stroke-width=".3985" stroke-linecap="butt" stroke-miterlimit="10" stroke-linejoin="miter" fill="none" stroke="#000000" d="M547.0849-461.77424H348.66035C347.0948-461.77424 345.8257-463.04335 345.8257-464.60887V-470.84526C345.8257-472.4108 347.0948-473.67994 348.66035-473.67994H547.0849C548.65048-473.67994 549.91958-472.4108 549.91958-470.84526V-464.60887C549.91958-463.04335 548.65048-461.77424 547.0849-461.77424ZM345.8257-473.67994"/>
<text xml:space="preserve" transform="matrix(1 0 -0 1 515.44 541.619)" font-size="7.9701" font-family="ArialMT"><tspan y="-57.628" x="37.597 42.028379">ee</tspan></text>
<path transform="matrix(1,0,0,-1,109.597,14.371025)" d="M1771.6481-461.77424H552.7542C551.18869-461.77424 549.91958-463.04335 549.91958-464.60887V-470.84526C549.91958-472.4108 551.18869-473.67994 552.7542-473.67994H1771.6481C1773.2136-473.67994 1774.4827-472.4108 1774.4827-470.84526V-464.60887C1774.4827-463.04335 1773.2136-461.77424 1771.6481-461.77424ZM549.91958-473.67994" fill="#0078dc"/>
<path transform="matrix(1,0,0,-1,109.597,14.371025)" stroke-width=".3985" stroke-linecap="butt" stroke-miterlimit="10" stroke-linejoin="miter" fill="none" stroke="#000000" d="M1771.6481-461.77424H552.7542C551.18869-461.77424 549.91958-463.04335 549.91958-464.60887V-470.84526C549.91958-472.4108 551.18869-473.67994 552.7542-473.67994H1771.6481C1773.2136-473.67994 1774.4827-472.4108 1774.4827-470.84526V-464.60887C1774.4827-463.04335 1773.2136-461.77424 1771.6481-461.77424ZM549.91958-473.67994"/>
<text xml:space="preserve" transform="matrix(1 0 -0 1 51.858 542.11709)" font-size="9.9626" font-family="ArialMT"><tspan y="-57.628" x="37.597 43.136209 48.675416">nop</tspan></text>
<path transform="matrix(1,0,0,-1,109.597,14.371025)" d="M70.86589-478.78248H42.51958C40.95401-478.78248 39.6849-480.05158 39.6849-481.61714V-487.8535C39.6849-489.41908 40.95401-490.68818 42.51958-490.68818H70.86589C72.43144-490.68818 73.70055-489.41908 73.70055-487.8535V-481.61714C73.70055-480.05158 72.43144-478.78248 70.86589-478.78248ZM39.6849-490.68818" fill="#ffb400"/>
<path transform="matrix(1,0,0,-1,109.597,14.371025)" stroke-width=".3985" stroke-linecap="butt" stroke-miterlimit="10" stroke-linejoin="miter" fill="none" stroke="#000000" d="M70.86589-478.78248H42.51958C40.95401-478.78248 39.6849-480.05158 39.6849-481.61714V-487.8535C39.6849-489.41908 40.95401-490.68818 42.51958-490.68818H70.86589C72.43144-490.68818 73.70055-489.41908 73.70055-487.8535V-481.61714C73.70055-480.05158 72.43144-478.78248 70.86589-478.78248ZM39.6849-490.68818"/>
<text xml:space="preserve" transform="matrix(1 0 -0 1 54.64 559.125)" font-size="9.9626" font-family="ArialMT"><tspan y="-57.628" x="37.597 43.136209 46.453756">qrs</tspan></text>
<path transform="matrix(1,0,0,-1,109.597,14.371025)" d="M240.94409-495.79075H59.5274C57.96184-495.79075 56.69273-497.05986 56.69273-498.6254V-504.86177C56.69273-506.4273 57.96184-507.69645 59.5274-507.69645H240.94409C242.50966-507.69645 243.77877-506.4273 243.77877-504.86177V-498.6254C243.77877-497.05986 242.50966-495.79075 240.94409-495.79075ZM56.69273-507.69645" fill="#ffb400"/>
<path transform="matrix(1,0,0,-1,109.597,14.371025)" stroke-width=".3985" stroke-linecap="butt" stroke-miterlimit="10" stroke-linejoin="miter" fill="none" stroke="#000000" d="M240.94409-495.79075H59.5274C57.96184-495.79075 56.69273-497.05986 56.69273-498.6254V-504.86177C56.69273-506.4273 57.96184-507.69645 59.5274-507.69645H240.94409C242.50966-507.69645 243.77877-506.4273 243.77877-504.86177V-498.6254C243.77877-497.05986 242.50966-495.79075 240.94409-495.79075ZM56.69273-507.69645"/>
<text xml:space="preserve" transform="matrix(1 0 -0 1 55.190004 576.13406)" font-size="9.9626" font-family="ArialMT"><tspan y="-57.628" x="37.597 40.366605 45.90581">tuv</tspan></text>
<path transform="matrix(1,0,0,-1,109.597,14.371025)" stroke-width="1.19553" stroke-linecap="butt" stroke-miterlimit="10" stroke-linejoin="miter" fill="none" stroke="#ec008c" d="M0-510.24787H1298.2637"/>
<path transform="matrix(1,0,0,-1,109.597,14.371025)" d="M-.56696-517.0511H1298.8307V-520.45266L1297.6968-522.15359 1296.563-520.45266H1.7007L.56686-522.15359-.56696-520.45266Z"/>
<text xml:space="preserve" transform="matrix(1 0 -0 1 -12.720001 593.142)" font-size="9.9626" font-family="Arial" font-weight="bold"><tspan y="-57.628" x="37.597 42.94692 48.486127 54.025335 60.11248 66.19963 72.28678 75.05638 81.14353 87.23068 95.52953 98.29913 103.83834 109.37755 114.916759">Technologylayer</tspan></text>
<path transform="matrix(1,0,0,-1,109.597,14.371025)" d="M195.5899-529.80728H14.1732C12.60765-529.80728 11.33855-531.07638 11.33855-532.6419V-538.8783C11.33855-540.44387 12.60765-541.71298 14.1732-541.71298H195.5899C197.15547-541.71298 198.42458-540.44387 198.42458-538.8783V-532.6419C198.42458-531.07638 197.15547-529.80728 195.5899-529.80728ZM11.33855-541.71298" fill="#ffb400"/>
<path transform="matrix(1,0,0,-1,109.597,14.371025)" stroke-width=".3985" stroke-linecap="butt" stroke-miterlimit="10" stroke-linejoin="miter" fill="none" stroke="#000000" d="M195.5899-529.80728H14.1732C12.60765-529.80728 11.33855-531.07638 11.33855-532.6419V-538.8783C11.33855-540.44387 12.60765-541.71298 14.1732-541.71298H195.5899C197.15547-541.71298 198.42458-540.44387 198.42458-538.8783V-532.6419C198.42458-531.07638 197.15547-529.80728 195.5899-529.80728ZM11.33855-541.71298"/>
<text xml:space="preserve" transform="matrix(1 0 -0 1 51.322999 610.15)" font-size="9.9626" font-family="ArialMT"><tspan y="-57.628" x="37.597 44.789999 49.771299">wxy</tspan></text>
<path transform="matrix(1,0,0,-1,109.597,14.371025)" d="M127.55862-546.8155H14.1732C12.60765-546.8155 11.33855-548.08468 11.33855-549.6502V-555.88656C11.33855-557.45217 12.60765-558.7212 14.1732-558.7212H127.55862C129.12418-558.7212 130.3933-557.45217 130.3933-555.88656V-549.6502C130.3933-548.08468 129.12418-546.8155 127.55862-546.8155ZM11.33855-558.7212" fill="#ffb400"/>
<path transform="matrix(1,0,0,-1,109.597,14.371025)" stroke-width=".3985" stroke-linecap="butt" stroke-miterlimit="10" stroke-linejoin="miter" fill="none" stroke="#000000" d="M127.55862-546.8155H14.1732C12.60765-546.8155 11.33855-548.08468 11.33855-549.6502V-555.88656C11.33855-557.45217 12.60765-558.7212 14.1732-558.7212H127.55862C129.12418-558.7212 130.3933-557.45217 130.3933-555.88656V-549.6502C130.3933-548.08468 129.12418-546.8155 127.55862-546.8155ZM11.33855-558.7212"/>
<text xml:space="preserve" transform="matrix(1 0 -0 1 52.417 627.158)" font-size="9.9626" font-family="ArialMT"><tspan y="-57.628" x="37.597 42.5783 48.117509">zab</tspan></text>
<path transform="matrix(1,0,0,-1,109.597,14.371025)" d="M195.5899-546.8155H133.22795C131.6624-546.8155 130.3933-548.08468 130.3933-549.6502V-555.88656C130.3933-557.45217 131.6624-558.7212 133.22795-558.7212H195.5899C197.15547-558.7212 198.42458-557.45217 198.42458-555.88656V-549.6502C198.42458-548.08468 197.15547-546.8155 195.5899-546.8155ZM130.3933-558.7212" fill="#ffe199"/>
<path transform="matrix(1,0,0,-1,109.597,14.371025)" stroke-width=".3985" stroke-linecap="butt" stroke-miterlimit="10" stroke-linejoin="miter" fill="none" stroke="#000000" d="M195.5899-546.8155H133.22795C131.6624-546.8155 130.3933-548.08468 130.3933-549.6502V-555.88656C130.3933-557.45217 131.6624-558.7212 133.22795-558.7212H195.5899C197.15547-558.7212 198.42458-557.45217 198.42458-555.88656V-549.6502C198.42458-548.08468 197.15547-546.8155 195.5899-546.8155ZM130.3933-558.7212"/>
<text xml:space="preserve" transform="matrix(1 0 -0 1 229.984 626.66006)" font-size="7.9701" font-family="ArialMT"><tspan y="-57.628" x="37.597 41.58205 46.013429">cde</tspan></text>
<path transform="matrix(1,0,0,-1,109.597,14.371025)" d="M223.93628-563.8238H14.1732C12.60765-563.8238 11.33855-565.0929 11.33855-566.65847V-572.89486C11.33855-574.4604 12.60765-575.7295 14.1732-575.7295H223.93628C225.50183-575.7295 226.77095-574.4604 226.77095-572.89486V-566.65847C226.77095-565.0929 225.50183-563.8238 223.93628-563.8238ZM11.33855-575.7295" fill="#ffb400"/>
<path transform="matrix(1,0,0,-1,109.597,14.371025)" stroke-width=".3985" stroke-linecap="butt" stroke-miterlimit="10" stroke-linejoin="miter" fill="none" stroke="#000000" d="M223.93628-563.8238H14.1732C12.60765-563.8238 11.33855-565.0929 11.33855-566.65847V-572.89486C11.33855-574.4604 12.60765-575.7295 14.1732-575.7295H223.93628C225.50183-575.7295 226.77095-574.4604 226.77095-572.89486V-566.65847C226.77095-565.0929 225.50183-563.8238 223.93628-563.8238ZM11.33855-575.7295"/>
<text xml:space="preserve" transform="matrix(1 0 -0 1 54.631 644.16708)" font-size="9.9626" font-family="ArialMT"><tspan y="-57.628" x="37.597 40.366605 45.90581">fgh</tspan></text>
<path transform="matrix(1,0,0,-1,109.597,14.371025)" d="M223.93628-580.83206H14.1732C12.60765-580.83206 11.33855-582.10116 11.33855-583.66677V-589.9031C11.33855-591.4686 12.60765-592.73776 14.1732-592.73776H223.93628C225.50183-592.73776 226.77095-591.4686 226.77095-589.9031V-583.66677C226.77095-582.10116 225.50183-580.83206 223.93628-580.83206ZM11.33855-592.73776" fill="#ffb400"/>
<path transform="matrix(1,0,0,-1,109.597,14.371025)" stroke-width=".3985" stroke-linecap="butt" stroke-miterlimit="10" stroke-linejoin="miter" fill="none" stroke="#000000" d="M223.93628-580.83206H14.1732C12.60765-580.83206 11.33855-582.10116 11.33855-583.66677V-589.9031C11.33855-591.4686 12.60765-592.73776 14.1732-592.73776H223.93628C225.50183-592.73776 226.77095-591.4686 226.77095-589.9031V-583.66677C226.77095-582.10116 225.50183-580.83206 223.93628-580.83206ZM11.33855-592.73776"/>
<text xml:space="preserve" transform="matrix(1 0 -0 1 59.072 661.17507)" font-size="9.9626" font-family="ArialMT"><tspan y="-57.628" x="37.597 39.808698 42.020395">ijk</tspan></text>
<path transform="matrix(1,0,0,-1,109.597,14.371025)" d="M110.55083-110.55356 106.50684-109.23991C107.07588-107.48808 108.70888-106.30154 110.55083-106.30154Z" fill="#ffffff"/>
<path transform="matrix(1,0,0,-1,109.597,14.371025)" d="M110.55083-110.55356V-106.30154C112.89917-106.30154 114.80284-108.20522 114.80284-110.55356 114.80284-112.90189 112.89917-114.80556 110.55083-114.80556 109.03192-114.80556 107.62793-113.99496 106.86848-112.67955 106.26611-111.6362 106.13464-110.38574 106.50684-109.23991Z" fill="#73c3f0"/>
<path transform="matrix(1,0,0,-1,109.597,14.371025)" stroke-width=".3985" stroke-linecap="butt" stroke-miterlimit="10" stroke-linejoin="miter" fill="none" stroke="#000000" d="M114.80284-110.55356C114.80284-108.20522 112.89917-106.30154 110.55083-106.30154 108.20248-106.30154 106.29883-108.20522 106.29883-110.55356 106.29883-112.90189 108.20248-114.80556 110.55083-114.80556 112.89917-114.80556 114.80284-112.90189 114.80284-110.55356ZM110.55083-110.55356"/>
<path transform="matrix(1,0,0,-1,109.597,14.371025)" stroke-width=".79701" stroke-linecap="butt" stroke-miterlimit="10" stroke-linejoin="miter" fill="none" stroke="#78879b" d="M110.55083-106.30154V-17.06439"/>
<path transform="matrix(0,-1,-1,-0,220.14783,31.435416)" stroke-width=".6376" stroke-linecap="round" stroke-linejoin="round" fill="none" stroke="#78879b" d="M-1.55415 2.0722C-1.42464 1.29512 0 .1295 .38852 0 0-.1295-1.42464-1.29512-1.55415-2.0722"/>
<path transform="matrix(1,0,0,-1,109.597,14.371025)" d="M223.93631-110.55356 227.88948-112.11865C227.02509-114.30196 224.55449-115.37111 222.3712-114.50671 220.18791-113.64233 219.11876-111.17174 219.98314-108.98845 220.62503-107.36717 222.19246-106.30154 223.93631-106.30154Z" fill="#ffffff"/>
<path transform="matrix(1,0,0,-1,109.597,14.371025)" d="M223.93631-110.55356V-106.30154C225.45522-106.30154 226.8592-107.11214 227.61865-108.42755 228.26775-109.55182 228.36733-110.91171 227.88948-112.11865Z" fill="#73c3f0"/>
<path transform="matrix(1,0,0,-1,109.597,14.371025)" stroke-width=".3985" stroke-linecap="butt" stroke-miterlimit="10" stroke-linejoin="miter" fill="none" stroke="#000000" d="M228.18831-110.55356C228.18831-108.20522 226.28466-106.30154 223.93631-106.30154 221.58797-106.30154 219.6843-108.20522 219.6843-110.55356 219.6843-112.90189 221.58797-114.80556 223.93631-114.80556 226.28466-114.80556 228.18831-112.90189 228.18831-110.55356ZM223.93631-110.55356"/>
<path transform="matrix(1,0,0,-1,109.597,14.371025)" stroke-width=".79701" stroke-linecap="butt" stroke-miterlimit="10" stroke-linejoin="miter" fill="none" stroke="#78879b" d="M223.93631-106.30154V-17.06439"/>
<path transform="matrix(0,-1,-1,-0,333.53334,31.435416)" stroke-width=".6376" stroke-linecap="round" stroke-linejoin="round" fill="none" stroke="#78879b" d="M-1.55415 2.0722C-1.42464 1.29512 0 .1295 .38852 0 0-.1295-1.42464-1.29512-1.55415-2.0722"/>
<path transform="matrix(1,0,0,-1,109.597,14.371025)" stroke-width=".79701" stroke-linecap="butt" stroke-miterlimit="10" stroke-linejoin="miter" fill="none" stroke="#78879b" d="M198.62383-535.76016V-234.57076"/>
<path transform="matrix(0,-1,-1,-0,308.22084,248.94178)" stroke-width=".6376" stroke-linecap="round" stroke-linejoin="round" fill="none" stroke="#78879b" d="M-1.55415 2.0722C-1.42464 1.29512 0 .1295 .38852 0 0-.1295-1.42464-1.29512-1.55415-2.0722"/>
<path transform="matrix(1,0,0,-1,109.597,14.371025)" d="M198.62383-229.61139 194.57984-228.29776C195.14888-226.54593 196.78188-225.35938 198.62383-225.35938Z" fill="#ffffff"/>
<path transform="matrix(1,0,0,-1,109.597,14.371025)" d="M198.62383-229.61139V-225.35938C200.97217-225.35938 202.87584-227.26305 202.87584-229.61139 202.87584-231.95973 200.97217-233.8634 198.62383-233.8634 197.10492-233.8634 195.70093-233.0528 194.94149-231.73738 194.33911-230.69405 194.20764-229.44358 194.57984-228.29776Z" fill="#ffb400"/>
<path transform="matrix(1,0,0,-1,109.597,14.371025)" stroke-width=".3985" stroke-linecap="butt" stroke-miterlimit="10" stroke-linejoin="miter" fill="none" stroke="#000000" d="M202.87584-229.61139C202.87584-227.26305 200.97217-225.35938 198.62383-225.35938 196.27548-225.35938 194.37183-227.26305 194.37183-229.61139 194.37183-231.95973 196.27548-233.8634 198.62383-233.8634 200.97217-233.8634 202.87584-231.95973 202.87584-229.61139ZM198.62383-229.61139"/>
<path transform="matrix(1,0,0,-1,109.597,14.371025)" stroke-width=".79701" stroke-linecap="butt" stroke-miterlimit="10" stroke-linejoin="miter" fill="none" stroke="#78879b" d="M164.60819-416.70228V-471.2717"/>
<path transform="matrix(0,1,1,0,274.2052,485.64274)" stroke-width=".6376" stroke-linecap="round" stroke-linejoin="round" fill="none" stroke="#78879b" d="M-1.55415 2.0722C-1.42464 1.29512 0 .1295 .38852 0 0-.1295-1.42464-1.29512-1.55415-2.0722"/>
<path transform="matrix(1,0,0,-1,109.597,14.371025)" d="M164.60819-467.72709 164.341-463.4837C164.4299-463.4781 164.51912-463.47505 164.60819-463.47505Z" fill="#ffffff"/>
<path transform="matrix(1,0,0,-1,109.597,14.371025)" d="M164.60819-467.72709V-463.47505C166.95653-463.47505 168.8602-465.37873 168.8602-467.72709 168.8602-470.0754 166.95653-471.97908 164.60819-471.97908 162.25984-471.97908 160.35617-470.0754 160.35617-467.72709 160.35617-465.4828 162.1013-463.6247 164.341-463.4837Z" fill="#ffb400"/>
<path transform="matrix(1,0,0,-1,109.597,14.371025)" stroke-width=".3985" stroke-linecap="butt" stroke-miterlimit="10" stroke-linejoin="miter" fill="none" stroke="#000000" d="M168.8602-467.72709C168.8602-465.37873 166.95653-463.47505 164.60819-463.47505 162.25984-463.47505 160.35617-465.37873 160.35617-467.72709 160.35617-470.0754 162.25984-471.97908 164.60819-471.97908 166.95653-471.97908 168.8602-470.0754 168.8602-467.72709ZM164.60819-467.72709"/>
<path transform="matrix(1,0,0,-1,109.597,14.371025)" stroke-width=".79701" stroke-linecap="butt" stroke-miterlimit="10" stroke-linejoin="miter" fill="none" stroke="#78879b" d="M346.02497-416.70228V-471.2717"/>
<path transform="matrix(0,1,1,0,455.62196,485.64274)" stroke-width=".6376" stroke-linecap="round" stroke-linejoin="round" fill="none" stroke="#78879b" d="M-1.55415 2.0722C-1.42464 1.29512 0 .1295 .38852 0 0-.1295-1.42464-1.29512-1.55415-2.0722"/>
<path transform="matrix(1,0,0,-1,109.597,14.371025)" d="M346.02497-467.72709 345.75779-463.4837C345.84666-463.4781 345.93589-463.47505 346.02497-463.47505Z" fill="#ffffff"/>
<path transform="matrix(1,0,0,-1,109.597,14.371025)" d="M346.02497-467.72709V-463.47505C348.3733-463.47505 350.27696-465.37873 350.27696-467.72709 350.27696-470.0754 348.3733-471.97908 346.02497-471.97908 343.6766-471.97908 341.77293-470.0754 341.77293-467.72709 341.77293-465.4828 343.51808-463.6247 345.75779-463.4837Z" fill="#ffb400"/>
<path transform="matrix(1,0,0,-1,109.597,14.371025)" stroke-width=".3985" stroke-linecap="butt" stroke-miterlimit="10" stroke-linejoin="miter" fill="none" stroke="#000000" d="M350.27696-467.72709C350.27696-465.37873 348.3733-463.47505 346.02497-463.47505 343.6766-463.47505 341.77293-465.37873 341.77293-467.72709 341.77293-470.0754 343.6766-471.97908 346.02497-471.97908 348.3733-471.97908 350.27696-470.0754 350.27696-467.72709ZM346.02497-467.72709"/>
<path transform="matrix(1,0,0,-1,109.597,14.371025)" stroke-width=".79701" stroke-linecap="butt" stroke-miterlimit="10" stroke-linejoin="miter" fill="none" stroke="#78879b" d="M346.02497-416.70228V-234.57076"/>
<path transform="matrix(0,-1,-1,-0,455.62196,248.94178)" stroke-width=".6376" stroke-linecap="round" stroke-linejoin="round" fill="none" stroke="#78879b" d="M-1.55415 2.0722C-1.42464 1.29512 0 .1295 .38852 0 0-.1295-1.42464-1.29512-1.55415-2.0722"/>
<path transform="matrix(1,0,0,-1,109.597,14.371025)" d="M346.02497-229.61139 341.98094-228.29776C342.55-226.54593 344.183-225.35938 346.02497-225.35938Z" fill="#ffffff"/>
<path transform="matrix(1,0,0,-1,109.597,14.371025)" d="M346.02497-229.61139V-225.35938C348.3733-225.35938 350.27696-227.26305 350.27696-229.61139 350.27696-231.95973 348.3733-233.8634 346.02497-233.8634 344.50605-233.8634 343.10206-233.0528 342.3426-231.73738 341.74024-230.69405 341.60877-229.44358 341.98094-228.29776Z" fill="#ffb400"/>
<path transform="matrix(1,0,0,-1,109.597,14.371025)" stroke-width=".3985" stroke-linecap="butt" stroke-miterlimit="10" stroke-linejoin="miter" fill="none" stroke="#000000" d="M350.27696-229.61139C350.27696-227.26305 348.3733-225.35938 346.02497-225.35938 343.6766-225.35938 341.77293-227.26305 341.77293-229.61139 341.77293-231.95973 343.6766-233.8634 346.02497-233.8634 348.3733-233.8634 350.27696-231.95973 350.27696-229.61139ZM346.02497-229.61139"/>
<path transform="matrix(1,0,0,-1,109.597,14.371025)" stroke-width=".79701" stroke-linecap="butt" stroke-miterlimit="10" stroke-linejoin="miter" fill="none" stroke="#78879b" d="M550.1188-467.72709V-234.57076"/>
<path transform="matrix(0,-1,-1,-0,659.71578,248.94178)" stroke-width=".6376" stroke-linecap="round" stroke-linejoin="round" fill="none" stroke="#78879b" d="M-1.55415 2.0722C-1.42464 1.29512 0 .1295 .38852 0 0-.1295-1.42464-1.29512-1.55415-2.0722"/>
<path transform="matrix(1,0,0,-1,109.597,14.371025)" d="M550.1188-229.61139 546.0748-228.29776C546.64389-226.54593 548.27688-225.35938 550.1188-225.35938Z" fill="#ffffff"/>
<path transform="matrix(1,0,0,-1,109.597,14.371025)" d="M550.1188-229.61139V-225.35938C552.46719-225.35938 554.37088-227.26305 554.37088-229.61139 554.37088-231.95973 552.46719-233.8634 550.1188-233.8634 548.5999-233.8634 547.1959-233.0528 546.43649-231.73738 545.8341-230.69405 545.7026-229.44358 546.0748-228.29776Z" fill="#ffb400"/>
<path transform="matrix(1,0,0,-1,109.597,14.371025)" stroke-width=".3985" stroke-linecap="butt" stroke-miterlimit="10" stroke-linejoin="miter" fill="none" stroke="#000000" d="M554.37088-229.61139C554.37088-227.26305 552.46719-225.35938 550.1188-225.35938 547.77047-225.35938 545.86679-227.26305 545.86679-229.61139 545.86679-231.95973 547.77047-233.8634 550.1188-233.8634 552.46719-233.8634 554.37088-231.95973 554.37088-229.61139ZM550.1188-229.61139"/>
<path transform="matrix(1,0,0,-1,109.597,14.371025)" stroke-width=".79701" stroke-linecap="butt" stroke-miterlimit="10" stroke-linejoin="miter" fill="none" stroke="#78879b" d="M73.89981-484.73533V-455.6782"/>
<path transform="matrix(0,-1,-1,-0,183.49681,470.04924)" stroke-width=".6376" stroke-linecap="round" stroke-linejoin="round" fill="none" stroke="#78879b" d="M-1.55415 2.0722C-1.42464 1.29512 0 .1295 .38852 0 0-.1295-1.42464-1.29512-1.55415-2.0722"/>
<path transform="matrix(1,0,0,-1,109.597,14.371025)" d="M73.89981-450.7188 72.58585-446.67494C73.00998-446.5371 73.45383-446.46678 73.89981-446.46678Z" fill="#ffffff"/>
<path transform="matrix(1,0,0,-1,109.597,14.371025)" d="M73.89981-450.7188V-446.46678C76.24814-446.46678 78.15181-448.37046 78.15181-450.7188 78.15181-453.06715 76.24814-454.97084 73.89981-454.97084 71.55147-454.97084 69.6478-453.06715 69.6478-450.7188 69.6478-448.8769 70.83412-447.2441 72.58585-446.67494Z" fill="#ffb400"/>
<path transform="matrix(1,0,0,-1,109.597,14.371025)" stroke-width=".3985" stroke-linecap="butt" stroke-miterlimit="10" stroke-linejoin="miter" fill="none" stroke="#000000" d="M78.15181-450.7188C78.15181-448.37046 76.24814-446.46678 73.89981-446.46678 71.55147-446.46678 69.6478-448.37046 69.6478-450.7188 69.6478-453.06715 71.55147-454.97084 73.89981-454.97084 76.24814-454.97084 78.15181-453.06715 78.15181-450.7188ZM73.89981-450.7188"/>
<path transform="matrix(1,0,0,-1,109.597,14.371025)" stroke-width=".79701" stroke-linecap="butt" stroke-miterlimit="10" stroke-linejoin="miter" fill="none" stroke="#78879b" d="M243.97801-501.7436V-455.6782"/>
<path transform="matrix(0,-1,-1,-0,353.575,470.04924)" stroke-width=".6376" stroke-linecap="round" stroke-linejoin="round" fill="none" stroke="#78879b" d="M-1.55415 2.0722C-1.42464 1.29512 0 .1295 .38852 0 0-.1295-1.42464-1.29512-1.55415-2.0722"/>
<path transform="matrix(1,0,0,-1,109.597,14.371025)" d="M243.97801-450.7188 242.66407-446.67494C243.0882-446.5371 243.53205-446.46678 243.97801-446.46678Z" fill="#ffffff"/>
<path transform="matrix(1,0,0,-1,109.597,14.371025)" d="M243.97801-450.7188V-446.46678C246.32636-446.46678 248.23003-448.37046 248.23003-450.7188 248.23003-453.06715 246.32636-454.97084 243.97801-454.97084 241.62969-454.97084 239.72602-453.06715 239.72602-450.7188 239.72602-448.8769 240.91234-447.2441 242.66407-446.67494Z" fill="#ffb400"/>
<path transform="matrix(1,0,0,-1,109.597,14.371025)" stroke-width=".3985" stroke-linecap="butt" stroke-miterlimit="10" stroke-linejoin="miter" fill="none" stroke="#000000" d="M248.23003-450.7188C248.23003-448.37046 246.32636-446.46678 243.97801-446.46678 241.62969-446.46678 239.72602-448.37046 239.72602-450.7188 239.72602-453.06715 241.62969-454.97084 243.97801-454.97084 246.32636-454.97084 248.23003-453.06715 248.23003-450.7188ZM243.97801-450.7188"/>
<path transform="matrix(1,0,0,-1,109.597,14.371025)" stroke-width=".79701" stroke-linecap="butt" stroke-miterlimit="10" stroke-linejoin="miter" fill="none" stroke="#78879b" d="M141.93109-59.52876V-199.13951"/>
<path transform="matrix(0,1,1,0,251.52809,213.51053)" stroke-width=".6376" stroke-linecap="round" stroke-linejoin="round" fill="none" stroke="#78879b" d="M-1.55415 2.0722C-1.42464 1.29512 0 .1295 .38852 0 0-.1295-1.42464-1.29512-1.55415-2.0722"/>
<path transform="matrix(1,0,0,-1,109.597,14.371025)" d="M141.93109-195.59487 140.61714-191.551C141.04128-191.4132 141.4851-191.34285 141.93109-191.34285Z" fill="#ffffff"/>
<path transform="matrix(1,0,0,-1,109.597,14.371025)" d="M141.93109-195.59487V-191.34285C144.27944-191.34285 146.1831-193.24652 146.1831-195.59487 146.1831-197.9432 144.27944-199.84688 141.93109-199.84688 139.58275-199.84688 137.67908-197.9432 137.67908-195.59487 137.67908-193.75298 138.86542-192.12018 140.61714-191.551Z" fill="#ffb400"/>
<path transform="matrix(1,0,0,-1,109.597,14.371025)" stroke-width=".3985" stroke-linecap="butt" stroke-miterlimit="10" stroke-linejoin="miter" fill="none" stroke="#000000" d="M146.1831-195.59487C146.1831-193.24652 144.27944-191.34285 141.93109-191.34285 139.58275-191.34285 137.67908-193.24652 137.67908-195.59487 137.67908-197.9432 139.58275-199.84688 141.93109-199.84688 144.27944-199.84688 146.1831-197.9432 146.1831-195.59487ZM141.93109-195.59487"/>
<path transform="matrix(1,0,0,-1,109.597,14.371025)" stroke-width=".79701" stroke-linecap="butt" stroke-miterlimit="10" stroke-linejoin="miter" fill="none" stroke="#78879b" d="M141.93109-59.52876V-131.10646"/>
<path transform="matrix(0,1,1,0,251.52809,145.47748)" stroke-width=".6376" stroke-linecap="round" stroke-linejoin="round" fill="none" stroke="#78879b" d="M-1.55415 2.0722C-1.42464 1.29512 0 .1295 .38852 0 0-.1295-1.42464-1.29512-1.55415-2.0722"/>
<path transform="matrix(1,0,0,-1,109.597,14.371025)" d="M141.93109-127.56181 140.61714-123.51794C141.04128-123.38014 141.4851-123.3098 141.93109-123.3098Z" fill="#ffffff"/>
<path transform="matrix(1,0,0,-1,109.597,14.371025)" d="M141.93109-127.56181V-123.3098C144.27944-123.3098 146.1831-125.21347 146.1831-127.56181 146.1831-129.91016 144.27944-131.81383 141.93109-131.81383 139.58275-131.81383 137.67908-129.91016 137.67908-127.56181 137.67908-125.71992 138.86542-124.08713 140.61714-123.51794Z" fill="#ffb400"/>
<path transform="matrix(1,0,0,-1,109.597,14.371025)" stroke-width=".3985" stroke-linecap="butt" stroke-miterlimit="10" stroke-linejoin="miter" fill="none" stroke="#000000" d="M146.1831-127.56181C146.1831-125.21347 144.27944-123.3098 141.93109-123.3098 139.58275-123.3098 137.67908-125.21347 137.67908-127.56181 137.67908-129.91016 139.58275-131.81383 141.93109-131.81383 144.27944-131.81383 146.1831-129.91016 146.1831-127.56181ZM141.93109-127.56181"/>
</svg>
